<?xml version="1.0" standalone="no"?>
<!DOCTYPE svg PUBLIC "-//W3C//DTD SVG 20010904//EN"
 "http://www.w3.org/TR/2001/REC-SVG-20010904/DTD/svg10.dtd">
<svg version="1.0" xmlns="http://www.w3.org/2000/svg"
 width="392.000000pt" height="392.000000pt" viewBox="0 0 392.000000 392.000000"
 preserveAspectRatio="xMidYMid meet">
<metadata>
Created by potrace 1.14, written by Peter Selinger 2001-2017
</metadata>
<g transform="translate(0.000000,392.000000) scale(0.100000,-0.100000)"
fill="#000000" stroke="none">
<path d="M2251 3729 c-58 -40 -65 -48 -91 -99 -30 -59 -25 -161 11 -211 63
-90 149 -129 236 -108 63 16 115 51 149 101 40 57 46 155 14 219 -26 52 -58
89 -77 89 -7 0 -13 4 -13 9 0 16 -61 31 -124 31 -51 -1 -68 -5 -105 -31z m172
-16 c-7 -2 -19 -2 -25 0 -7 3 -2 5 12 5 14 0 19 -2 13 -5z m-153 -17 c0 -2
-12 -11 -27 -20 l-28 -17 24 20 c23 21 31 25 31 17z m54 -5 c3 -5 25 -6 49 -4
38 5 48 1 80 -27 45 -39 55 -82 31 -136 -9 -21 -16 -43 -15 -49 2 -5 3 -14 4
-18 1 -5 -13 -17 -31 -27 -31 -17 -32 -19 -12 -25 40 -13 14 -30 -48 -33 -49
-2 -62 0 -62 12 0 8 10 18 22 22 20 6 18 8 -18 25 -46 23 -70 51 -84 99 -14
49 -2 103 31 139 28 32 44 38 53 22z m176 -21 c0 -5 -5 -10 -11 -10 -5 0 -7 5
-4 10 3 6 8 10 11 10 2 0 4 -4 4 -10z m23 -10 c3 -11 1 -20 -4 -20 -5 0 -9 9
-9 20 0 11 2 20 4 20 2 0 6 -9 9 -20z m-303 -16 c0 -2 -7 -4 -15 -4 -8 0 -15
4 -15 10 0 5 7 7 15 4 8 -4 15 -8 15 -10z m334 -26 c-3 -4 -11 -8 -19 -8 -8 0
-12 -8 -9 -22 4 -21 4 -21 -4 -3 -12 26 -6 41 18 41 10 0 16 -4 14 -8z m16
-132 c0 -3 -4 -8 -10 -11 -5 -3 -10 -1 -10 4 0 6 5 11 10 11 6 0 10 -2 10 -4z
m-60 -90 c0 -3 -4 -8 -10 -11 -5 -3 -10 -1 -10 4 0 6 5 11 10 11 6 0 10 -2 10
-4z"/>
<path d="M2330 3630 c0 -5 4 -10 9 -10 6 0 13 5 16 10 3 6 -1 10 -9 10 -9 0
-16 -4 -16 -10z"/>
<path d="M2420 3630 c0 -5 4 -10 9 -10 6 0 13 5 16 10 3 6 -1 10 -9 10 -9 0
-16 -4 -16 -10z"/>
<path d="M2358 3599 c-19 -10 -24 -29 -9 -29 5 0 19 9 32 20 26 21 9 28 -23 9z"/>
<path d="M2450 3590 c0 -5 5 -10 10 -10 6 0 10 5 10 10 0 6 -4 10 -10 10 -5 0
-10 -4 -10 -10z"/>
<path d="M2386 3555 c-11 -8 -17 -17 -14 -21 7 -6 48 17 48 28 0 12 -13 9 -34
-7z"/>
<path d="M2300 3549 c0 -5 5 -7 10 -4 6 3 10 8 10 11 0 2 -4 4 -10 4 -5 0 -10
-5 -10 -11z"/>
<path d="M2420 3520 c-8 -5 -11 -12 -7 -16 4 -4 13 -2 19 4 15 15 7 24 -12 12z"/>
<path d="M2325 3510 c4 -6 11 -8 16 -5 14 9 11 15 -7 15 -8 0 -12 -5 -9 -10z"/>
<path d="M2430 3470 c-9 -6 -10 -10 -3 -10 6 0 15 5 18 10 8 12 4 12 -15 0z"/>
<path d="M2378 3453 c7 -3 16 -2 19 1 4 3 -2 6 -13 5 -11 0 -14 -3 -6 -6z"/>
<path d="M1684 3451 c-76 -35 -115 -82 -133 -163 -31 -138 84 -278 228 -278
53 0 132 41 174 90 40 47 53 98 45 179 -14 140 -182 232 -314 172z m7 -120
c-7 -11 -16 -21 -21 -21 -18 0 -22 22 -9 46 11 21 15 23 27 10 11 -11 11 -18
3 -35z m79 -6 c7 -8 17 -15 22 -15 5 0 16 7 24 15 25 24 53 18 74 -17 26 -43
25 -92 -2 -137 -39 -64 -85 -83 -137 -56 -60 30 -81 128 -41 193 21 35 41 40
60 17z m-92 -108 c-5 -83 -15 -110 -30 -82 -6 9 -7 46 -3 86 5 52 11 69 22 69
13 0 15 -12 11 -73z"/>
<path d="M1832 3278 c6 -18 28 -21 28 -4 0 9 -7 16 -16 16 -9 0 -14 -5 -12
-12z"/>
<path d="M1714 3246 c-8 -22 3 -33 18 -18 9 9 9 15 0 24 -9 9 -13 7 -18 -6z"/>
<path d="M1845 3220 c-8 -13 4 -32 16 -25 12 8 12 35 0 35 -6 0 -13 -4 -16
-10z"/>
<path d="M1735 3180 c-7 -12 2 -30 16 -30 5 0 9 9 9 20 0 21 -15 27 -25 10z"/>
<path d="M1795 3161 c-3 -5 -1 -12 5 -16 12 -7 30 2 30 16 0 12 -27 12 -35 0z"/>
<path d="M2673 3032 c-66 -24 -133 -79 -169 -139 -23 -40 -29 -62 -32 -135 -4
-76 -1 -92 20 -140 46 -99 140 -167 250 -183 35 -5 65 -2 116 14 83 25 145 75
187 152 26 48 30 63 29 139 0 73 -4 93 -27 137 -72 140 -232 206 -374 155z
m37 -117 c0 -8 5 -14 11 -12 6 1 16 -5 22 -15 13 -20 -6 -48 -34 -48 -16 0
-19 8 -19 45 0 25 5 45 10 45 6 0 10 -7 10 -15z m240 -35 c0 -6 -8 -10 -17 -8
-10 2 -19 -5 -21 -16 -3 -15 0 -18 17 -13 21 5 29 -7 12 -17 -27 -17 -57 35
-34 57 10 11 43 8 43 -3z m-312 -92 c2 -16 -2 -28 -8 -28 -6 0 -8 5 -5 10 3 6
-1 10 -10 10 -11 0 -15 -5 -11 -15 3 -8 1 -15 -3 -15 -5 0 -12 7 -15 16 -4 11
1 18 14 21 11 3 20 10 20 15 0 5 -10 6 -21 3 -15 -5 -19 -4 -14 5 13 22 50 7
53 -22z m268 -18 l2 -45 -7 40 -6 40 -85 6 -85 6 90 -1 90 -1 1 -45z m-222 9
l-29 -30 93 3 c51 2 91 -1 89 -6 -2 -5 -44 -8 -95 -7 l-92 2 0 -85 c0 -70 3
-87 18 -96 15 -10 15 -10 -3 -8 -18 3 -20 12 -23 97 l-3 94 33 34 c17 18 34
33 37 33 3 0 -8 -14 -25 -31z m204 -170 c-13 -17 -35 -37 -50 -45 -32 -17
-104 -19 -113 -3 -5 7 10 10 45 8 47 -3 57 1 91 30 34 28 39 38 41 79 l1 47 4
-42 c3 -32 -1 -50 -19 -74z m-48 21 c0 -5 -5 -10 -11 -10 -5 0 -7 5 -4 10 3 6
8 10 11 10 2 0 4 -4 4 -10z"/>
<path d="M2710 2870 c0 -11 4 -20 9 -20 11 0 22 26 14 34 -12 12 -23 5 -23
-14z"/>
<path d="M1915 2541 c-50 -9 -89 -30 -142 -75 -125 -108 -155 -273 -78 -427
69 -135 249 -209 399 -164 160 49 254 184 244 354 -11 175 -138 305 -309 315
-41 3 -92 1 -114 -3z m113 -109 c2 -14 -2 -22 -12 -22 -19 0 -29 17 -22 36 8
22 30 12 34 -14z m40 -51 c3 -8 0 -17 -6 -19 -17 -5 -15 -68 4 -103 8 -17 30
-47 49 -68 43 -48 57 -83 45 -115 -13 -36 -73 -49 -201 -44 -88 3 -111 7 -128
22 -39 36 -21 95 50 164 32 31 34 37 34 100 0 37 5 70 10 75 6 4 39 6 73 6 47
-2 65 -6 70 -18z"/>
<path d="M1960 2350 c0 -5 0 -13 0 -17 0 -4 8 -8 17 -8 25 0 29 -35 5 -42 -11
-2 -25 -14 -31 -26 -6 -12 -34 -49 -61 -82 -49 -58 -63 -95 -36 -95 7 0 19 14
27 31 7 18 23 45 37 60 21 26 30 29 84 29 l59 0 -20 29 c-15 20 -21 45 -21 80
0 50 -1 51 -30 51 -16 0 -30 -4 -30 -10z"/>
<path d="M1942 2158 c2 -13 10 -23 18 -23 8 0 16 10 18 23 3 17 -2 22 -18 22
-16 0 -21 -5 -18 -22z"/>
<path d="M2011 2137 c-25 -31 20 -71 48 -42 12 12 13 19 5 33 -15 22 -38 26
-53 9z"/>
<path d="M3235 2104 c-91 -55 -259 -119 -610 -234 -240 -78 -402 -182 -487
-313 -55 -83 -52 -91 10 -29 69 70 121 107 231 162 123 62 226 92 551 159 140
30 341 78 347 85 2 2 2 46 1 99 l-3 96 -40 -25z"/>
<path d="M484 1838 c14 -68 58 -316 71 -403 7 -49 18 -112 24 -140 10 -50 20
-104 41 -225 56 -324 70 -394 82 -401 7 -5 31 -9 53 -9 91 -1 334 -47 504 -95
275 -79 465 -178 605 -317 37 -37 70 -68 72 -68 3 0 3 235 2 523 l-3 522 -39
80 c-72 149 -238 283 -436 352 -81 29 -281 70 -380 78 -158 14 -431 72 -541
115 -27 11 -52 20 -56 20 -3 0 -3 -15 1 -32z"/>
<path d="M3445 1800 c-59 -22 -445 -88 -735 -125 -196 -25 -240 -35 -319 -71
-80 -37 -190 -114 -236 -165 -42 -48 -94 -137 -106 -184 -6 -22 -13 -49 -16
-60 -3 -11 -8 -249 -10 -529 l-5 -509 59 52 c80 72 220 154 344 202 103 39
338 101 434 114 28 3 66 9 85 11 19 3 49 7 65 11 17 3 111 11 210 17 l180 11
17 235 c9 129 22 303 27 385 20 292 32 450 39 527 8 82 4 92 -33 78z"/>
</g>
</svg>
